<svg xmlns="http://www.w3.org/2000/svg" viewBox="1392.48 167.76 256.56 692.68" width="257" height="693" fill="none"><path transform="translate(0,0)" fill="#40382F" d="M 1500.9 193.45 C 1505.57 195.149 1504 194.03 1507.03 198.303 C 1512.02 200.495 1511.48 193.887 1519.9 193.411 C 1528.19 200.234 1519.75 212.074 1515.82 219.143 C 1540.75 238.462 1545.97 277.256 1525.92 302.451 C 1522.46 306.802 1517.56 311.112 1513.48 314.97 C 1510.04 328.079 1509.71 398.103 1509.77 416.699 C 1509.88 453.513 1506.23 499.698 1507.27 535.784 C 1519.01 516.253 1529.45 499.45 1542.28 480.52 C 1541.67 479.299 1541.09 478.068 1540.52 476.826 C 1523.62 439.289 1549.08 414.375 1580.68 400.761 C 1579.08 393.71 1576.99 386.217 1579.92 379.314 C 1582.44 377.08 1581.22 377.598 1584.51 377.311 C 1587.56 378.198 1588.83 380.983 1590.56 383.692 C 1594.52 385.515 1593.88 379.763 1601.29 379.436 C 1604.31 381.933 1602.83 382.066 1603.96 387.432 C 1607.39 388.648 1609.16 385.523 1611.72 386.491 C 1616.02 388.121 1612.21 390.651 1614.93 394.695 C 1618.08 395.173 1619.19 395.209 1622.06 396.812 C 1623.38 399.557 1623.24 398.35 1622.53 401.355 C 1619.68 404.867 1613.79 407.36 1609.61 409.513 C 1615.64 447.531 1594.7 495.922 1549.05 487.638 C 1534.47 500.638 1510.53 544.156 1506.23 562.48 C 1503.42 574.43 1502.23 606.575 1501.19 620.407 C 1497.67 667.321 1493.6 713.28 1489.03 760.086 C 1502.76 744.211 1511.76 728.311 1530.6 716.828 C 1519.38 680.074 1534.2 649.666 1572.76 640.641 C 1573.58 635.364 1574.59 625.507 1578.38 621.98 C 1584.32 621.174 1584.25 626.263 1588.16 629.255 C 1589.3 630.129 1591.57 625.663 1596.23 624.485 C 1598.77 626.103 1598.64 629.466 1600.23 633.383 C 1602.75 633.548 1605.05 632.847 1607.54 632.286 C 1609.99 634.29 1612.91 643.384 1613.84 646.512 C 1611.06 659.415 1598.04 645.314 1600.44 666.949 C 1599 682.701 1588.36 705.389 1575.57 715.338 C 1563.29 724.886 1551.54 724.605 1537.18 722.65 C 1514.1 740.041 1493.99 756.841 1486.33 786.271 C 1483.5 797.115 1483.47 829.778 1476.58 834.779 C 1471.3 830.709 1478.33 786.905 1479.27 778.098 C 1482.68 746.558 1485.6 714.966 1488.03 683.335 C 1488.61 675.361 1491.02 646.408 1490.25 639.772 C 1487.56 616.409 1477.6 572.452 1468.02 551.531 C 1454.97 547.903 1447.22 548.562 1437.8 534.466 C 1423.97 513.763 1428.74 494.739 1432.85 472.74 C 1427.93 469.639 1418.94 465.041 1418.13 458.963 C 1422.11 452.762 1427.37 461.751 1430.47 455.004 C 1429.08 450.841 1427.59 449.088 1431.52 446.532 C 1434.83 446.635 1437.51 448.704 1440.4 450.456 C 1442.86 447.79 1439.83 444.31 1445.89 440.366 C 1449.3 440.937 1449.01 441.493 1452.08 444.04 C 1455.76 444.726 1455.62 442.155 1460.83 439.33 C 1463.8 439.64 1462.65 439.216 1465.2 441.335 C 1467.65 446.593 1464.79 453.504 1463.12 459.021 C 1481.07 472.693 1490.84 492.54 1492.01 515.086 C 1492.75 529.343 1485.43 537.8 1476.34 547.38 C 1482.19 567.346 1487.83 591.291 1493.43 611.85 C 1504.38 518.798 1500.2 414.494 1503.86 320.364 C 1487.03 309.826 1479.96 303.57 1475.97 283.147 C 1471.05 257.967 1473.74 244.91 1488.07 223.381 C 1486.26 220.633 1484.52 217.845 1482.83 215.02 C 1480.11 210.368 1477.82 201.35 1483.46 198.175 C 1488.78 198.436 1491.64 201.925 1495.14 205.582 C 1497.1 200.425 1497.91 198.254 1500.9 193.45 z"/><path transform="translate(0,0)" fill="#7C876A" d="M 1585.76 407.093 C 1622.55 404.037 1600.09 469.154 1564.54 481.975 C 1540.85 483.476 1542.44 456.245 1547.21 440.115 C 1552.43 422.493 1570.24 414.334 1585.76 407.093 z"/><path transform="translate(0,0)" fill="#7C876A" d="M 1508.3 223.39 C 1526.65 228.462 1532.51 265.493 1527.49 281.437 C 1523.4 294.471 1514.98 302.714 1503.56 309.097 C 1477.89 305.274 1477.08 249.553 1490.63 232.809 C 1499.71 221.6 1499.69 229.439 1508.3 223.39 z"/><path transform="translate(0,0)" fill="#7C876A" d="M 1575.02 648.232 C 1574.93 648.228 1589.15 655.244 1590.74 655.988 C 1597.68 668.126 1587.57 685.626 1581.17 696.407 C 1574.52 707.611 1565.09 715.024 1552.26 717.877 C 1543.53 717.999 1535.44 714.107 1534.34 704.805 C 1530.96 676.408 1547.81 653.665 1575.02 648.232 z"/><path transform="translate(0,0)" fill="#7C876A" d="M 1455.9 463.861 C 1479.32 474.209 1501.77 530.113 1465.69 543.343 C 1438.98 539.808 1430.75 502.551 1438.21 480.85 C 1441.48 471.335 1449.05 470.268 1455.9 463.861 z"/></svg>